<?xml version="1.0" encoding="utf-8"?>
<!-- Generator: Adobe Illustrator 26.0.3, SVG Export Plug-In . SVG Version: 6.00 Build 0)  -->
<svg version="1.1" id="Calque_1" xmlns="http://www.w3.org/2000/svg" xmlns:xlink="http://www.w3.org/1999/xlink" x="0px" y="0px"
	 viewBox="0 0 300 300" style="enable-background:new 0 0 300 300;" xml:space="preserve">
<style type="text/css">
	.st0{fill:#071847;}
</style>
<path class="st0" d="M26.7,150.52c0.1,2.66,1.2,5.74,3.02,7.68l59.54,63.26c4.03,3.63,11.77,5.12,16.28,0.93
	c4.44-4.13,4.31-12.14-0.11-16.28l-41.86-44.42h197.57c6.16,0,11.16-5,11.16-11.16c0-6.17-5-11.16-11.16-11.16H63.56l41.86-44.42
	c3.81-3.82,4.51-12.11,0.11-16.28c-4.4-4.18-12.41-2.84-16.28,0.93l-59.54,63.26C27.68,145.01,26.69,147.55,26.7,150.52L26.7,150.52
	z"/>
</svg>
