<?xml version="1.0" encoding="utf-8"?>
<!-- Generator: Adobe Illustrator 26.0.3, SVG Export Plug-In . SVG Version: 6.00 Build 0)  -->
<svg version="1.1" id="Calque_1" xmlns="http://www.w3.org/2000/svg" xmlns:xlink="http://www.w3.org/1999/xlink" x="0px" y="0px"
	 viewBox="0 0 300 300" style="enable-background:new 0 0 300 300;" xml:space="preserve">
<style type="text/css">
	.st0{fill:#FFFFFF;}
</style>
<path class="st0" d="M272.3,150.52c0.01-2.97-0.99-5.51-3.02-7.68l-59.54-63.26c-3.87-3.77-11.88-5.11-16.28-0.93
	c-4.4,4.17-3.7,12.46,0.11,16.28l41.86,44.42H37.86c-6.17,0-11.16,5-11.16,11.16c0,6.17,5,11.16,11.16,11.16h197.57l-41.86,44.42
	c-4.42,4.15-4.56,12.15-0.11,16.28c4.51,4.19,12.25,2.7,16.28-0.93l59.54-63.26C271.1,156.26,272.2,153.18,272.3,150.52
	L272.3,150.52z"/>
</svg>
