<?xml version="1.0" encoding="utf-8"?>
<!-- Generator: Adobe Illustrator 26.0.3, SVG Export Plug-In . SVG Version: 6.00 Build 0)  -->
<svg version="1.1" id="Calque_1" xmlns="http://www.w3.org/2000/svg" xmlns:xlink="http://www.w3.org/1999/xlink" x="0px" y="0px"
	 viewBox="0 0 300 300" style="enable-background:new 0 0 300 300;" xml:space="preserve">
<style type="text/css">
	.st0{fill:#071847;}
</style>
<path class="st0" d="M91.71,62.67c0,16.22-13.15,29.37-29.37,29.37S32.96,78.89,32.96,62.67s13.15-29.37,29.37-29.37
	S91.71,46.44,91.71,62.67"/>
<path class="st0" d="M91.71,149.98c0,16.22-13.15,29.37-29.37,29.37s-29.37-13.15-29.37-29.37c0-16.22,13.15-29.37,29.37-29.37
	S91.71,133.76,91.71,149.98"/>
<path class="st0" d="M91.71,237.33c0,16.22-13.15,29.37-29.37,29.37s-29.37-13.15-29.37-29.37s13.15-29.37,29.37-29.37
	S91.71,221.11,91.71,237.33"/>
<path class="st0" d="M179.63,62.67c0,16.22-13.15,29.37-29.37,29.37c-16.22,0-29.37-13.15-29.37-29.37s13.15-29.37,29.37-29.37
	C166.48,33.29,179.63,46.44,179.63,62.67"/>
<path class="st0" d="M179.63,149.98c0,16.22-13.15,29.37-29.37,29.37c-16.22,0-29.37-13.15-29.37-29.37
	c0-16.22,13.15-29.37,29.37-29.37C166.48,120.61,179.63,133.76,179.63,149.98"/>
<path class="st0" d="M179.63,237.33c0,16.22-13.15,29.37-29.37,29.37c-16.22,0-29.37-13.15-29.37-29.37s13.15-29.37,29.37-29.37
	C166.48,207.96,179.63,221.11,179.63,237.33"/>
<path class="st0" d="M267.52,62.67c0,16.22-13.15,29.37-29.37,29.37s-29.37-13.15-29.37-29.37s13.15-29.37,29.37-29.37
	S267.52,46.44,267.52,62.67"/>
<path class="st0" d="M267.52,149.98c0,16.22-13.15,29.37-29.37,29.37s-29.37-13.15-29.37-29.37c0-16.22,13.15-29.37,29.37-29.37
	S267.52,133.76,267.52,149.98"/>
<path class="st0" d="M267.52,237.33c0,16.22-13.15,29.37-29.37,29.37s-29.37-13.15-29.37-29.37s13.15-29.37,29.37-29.37
	S267.52,221.11,267.52,237.33"/>
</svg>
