<?xml version="1.0" encoding="utf-8"?>
<!-- Generator: Adobe Illustrator 26.0.3, SVG Export Plug-In . SVG Version: 6.00 Build 0)  -->
<svg version="1.1" id="Calque_1" xmlns="http://www.w3.org/2000/svg" xmlns:xlink="http://www.w3.org/1999/xlink" x="0px" y="0px"
	 viewBox="0 0 300 300" style="enable-background:new 0 0 300 300;" xml:space="preserve">
<style type="text/css">
	.st0{fill:#071847;}
</style>
<path class="st0" d="M244.06,117.84h-0.79c0-51.4-41.86-93.27-93.27-93.27s-93.27,41.86-93.27,93.27h-0.79
	c-12.98,0-23.32,10.6-23.32,23.32v111.55c0,12.98,10.6,23.32,23.32,23.32h188.13c12.98,0,23.32-10.6,23.32-23.32l0-111.56
	C267.64,128.17,257.04,117.84,244.06,117.84L244.06,117.84z M169.61,231.78c0.53,1.86,0,3.97-1.06,5.57
	c-1.33,1.59-3.18,2.38-5.03,2.38l-27.03,0c-2.12,0-3.71-0.79-5.03-2.38c-1.33-1.59-1.59-3.71-1.06-5.57l8.74-33.65
	c-7.42-3.97-12.45-11.66-12.45-20.67c0-12.98,10.6-23.32,23.32-23.32c12.72,0,23.32,10.6,23.32,23.32c0,9.01-5.03,16.69-12.45,20.67
	L169.61,231.78z M211.47,117.84H88.53c0-33.92,27.56-61.47,61.47-61.47C183.91,56.37,211.47,83.93,211.47,117.84L211.47,117.84z"/>
</svg>
