<?xml version="1.0" encoding="utf-8"?>
<!-- Generator: Adobe Illustrator 26.0.3, SVG Export Plug-In . SVG Version: 6.00 Build 0)  -->
<svg version="1.1" id="Calque_1" xmlns="http://www.w3.org/2000/svg" xmlns:xlink="http://www.w3.org/1999/xlink" x="0px" y="0px"
	 viewBox="0 0 300 300" style="enable-background:new 0 0 300 300;" xml:space="preserve">
<style type="text/css">
	.st0{fill:#071847;}
</style>
<path class="st0" d="M131.9,29.7c-32.7,0-63.5,15.7-82.7,42.2s-24.6,60.6-14.5,91.7c10.1,31.1,34.5,55.5,65.7,65.6
	c31.1,10.1,65.2,4.7,91.7-14.5l50.9,50.9c4.1,4,10,5.6,15.5,4.1c5.5-1.5,9.9-5.8,11.4-11.4c1.5-5.5-0.1-11.4-4.1-15.5L214.7,192
	c14.9-20.4,21.6-45.7,19-70.8s-14.5-48.4-33.3-65.3C181.6,38.9,157.1,29.6,131.9,29.7L131.9,29.7z M131.9,202.1
	c-18.6,0-36.5-7.4-49.6-20.6s-20.6-31-20.6-49.6c0-18.6,7.4-36.5,20.6-49.6s31-20.6,49.6-20.6s36.5,7.4,49.6,20.6s20.6,31,20.6,49.6
	c0,18.6-7.4,36.4-20.6,49.6S150.5,202.1,131.9,202.1z"/>
</svg>
