<?xml version="1.0" encoding="utf-8"?>
<!-- Generator: Adobe Illustrator 26.0.3, SVG Export Plug-In . SVG Version: 6.00 Build 0)  -->
<svg version="1.1" id="Calque_1" xmlns="http://www.w3.org/2000/svg" xmlns:xlink="http://www.w3.org/1999/xlink" x="0px" y="0px"
	 viewBox="0 0 300 300" style="enable-background:new 0 0 300 300;" xml:space="preserve">
<style type="text/css">
	.st0{fill:#071847;}
</style>
<g>
	<path class="st0" d="M195.81,145.45c-12.92,10.15-28.88,15.67-45.31,15.67s-32.39-5.52-45.31-15.67
		c-42.97,15.7-72.95,52.4-72.95,90.57c0,29.37,94.61,32.84,118.26,32.84s118.26-3.47,118.26-32.84
		C268.76,197.85,238.78,161.15,195.81,145.45L195.81,145.45z"/>
	<path class="st0" d="M189.53,48.51c21.55,21.55,21.55,56.5,0,78.05c-21.55,21.55-56.5,21.55-78.05,0
		c-21.55-21.55-21.55-56.5,0-78.05C133.03,26.96,167.98,26.96,189.53,48.51"/>
</g>
</svg>
