<?xml version="1.0" encoding="utf-8"?>
<!-- Generator: Adobe Illustrator 26.0.3, SVG Export Plug-In . SVG Version: 6.00 Build 0)  -->
<svg version="1.1" id="Calque_1" xmlns="http://www.w3.org/2000/svg" xmlns:xlink="http://www.w3.org/1999/xlink" x="0px" y="0px"
	 viewBox="0 0 470 130" style="enable-background:new 0 0 470 130;" xml:space="preserve">
<style type="text/css">
	.st0{fill:#FFFFFF;}
</style>
<g>
	<path class="st0" d="M33.8,79.6c5.8,12.6,16.8,21.4,31.4,23.7c0.6,0.1,0.5,0.9,0,1C23.7,105.1,7.4,51.8,42.5,30
		c0.5-0.3,1,0.4,0.6,0.8c-2.4,2.3-4.6,4.9-6.4,7.8c-1.8,2.7-2.3,6.1-1.5,9.2c5,24.5,38.4,49.6,58.3,43c0.5-0.2,0.9,0.4,0.5,0.8
		c-1.9,2.1-5.7,5.5-11.4,8.4c-5.4,1.8-19.8,2.5-36.8-10.2c-4.6-3.6-8.3-7.2-11.2-10.7C34.3,78.6,33.6,79,33.8,79.6z M62,30.9
		c-0.4-7.7-13.4-7.7-13.8,0c0,3.2,3.1,5.8,6.9,5.8C58.9,36.6,62,34.1,62,30.9z M103.8,72.9c0.9-3,0.9-8.2,0.9-8.2
		c0.3-22.9-18-35.9-24.4-37.3c-0.8-0.2-1.5-0.1-2.1,0.3c-2.4,1.7-0.5,8.8,4.1,15.5c4.6,6.6,10.2,10.7,12.6,9
		c2.2-1.6,0.8-7.6-3.2-13.8c9.3,10.4,7.8,20.3,7.8,20.3c-1.6,10.5-11.8,7-11.8,7c-13.1-4.2-20.5-20.2-20.5-20.2
		C62.2,35.2,55.1,39,55.1,39c-11,4.9,1.1,22.4,5.9,28.1c10.9,12.3,24.8,16.5,31.5,15.2C101.9,80.3,103.3,74.7,103.8,72.9z
		 M125.2,64.7c0-33.7-27.4-61.2-61.2-61.2c-7.9,0-15.6,1.5-22.9,4.4l0,0c-1,0.5-1.5,1.7-1.1,2.7c0.4,1.1,1.7,1.6,2.8,1.2l0,0
		C49.6,9.1,56.7,7.7,64,7.7c31.4,0,56.9,25.5,56.9,56.9c0,1.1,0,2.2-0.1,3.3l0,0c-0.1,1.2,0.8,2.2,2,2.2c1.2,0.1,2.2-0.8,2.2-2l0,0
		c0,0,0,0,0,0c0,0,0,0,0,0l0,0C125.1,67,125.2,65.8,125.2,64.7z M107.3,104.9c-0.8-0.8-2.1-0.9-2.9-0.1l0,0
		c-10.8,10.8-25.1,16.8-40.4,16.8c-31.4,0-56.9-25.5-56.9-56.9c0-1.3,0-2.7,0.1-4l0,0c0-1.1-0.9-2-2-2.1c-1.1-0.1-2.1,0.7-2.2,1.8
		l0,0c0,0,0,0,0,0.1c0,0,0,0.1,0,0.1l0,0c-0.1,1.4-0.1,2.7-0.1,4.1c0,33.7,27.4,61.2,61.2,61.2c16.4,0,31.7-6.4,43.3-17.9l0,0
		c0,0,0,0,0.1-0.1c0,0,0,0,0.1-0.1l0,0C108.1,106.9,108.1,105.7,107.3,104.9z M114.7,59c-0.1-1.3-1.3-2.2-2.5-2
		c-1.3,0.1-2.2,1.3-2,2.5l0,0c0,0,0,0,0,0c0,0,0,0,0,0l0,0c0.2,1.7,0.3,3.4,0.3,5.2c0,16.4-8.4,31.2-22.4,39.7l0,0c0,0,0,0,0,0
		c0,0,0,0,0,0l0,0c-1.1,0.7-1.4,2.1-0.8,3.2c0.7,1.1,2.1,1.4,3.2,0.8l0,0c7.4-4.5,13.6-10.8,17.9-18.2c4.4-7.7,6.8-16.5,6.8-25.4
		C115,62.8,114.9,60.9,114.7,59L114.7,59z M64,115.7c1.4,0,2.9-0.1,4.3-0.2l0,0c1.3-0.1,2.2-1.2,2.1-2.5c-0.1-1.3-1.2-2.2-2.5-2.1
		l0,0c-1.3,0.1-2.6,0.2-3.9,0.2c-25.6,0-46.4-20.8-46.4-46.4S38.4,18.3,64,18.3c11.9,0,23.2,4.5,31.8,12.6l0,0
		c0.9,0.9,2.4,0.8,3.3-0.1c0.9-0.9,0.8-2.4-0.1-3.3l0,0C89.5,18.6,77.1,13.7,64,13.7c-28.1,0-51,22.9-51,51
		C13,92.8,35.9,115.7,64,115.7z"/>
	<path class="st0" d="M174.4,55.7h-10.6v35.8h-6.7V55.7h-10.6v-6.2h27.9V55.7z M203.7,78.6h-24.1c1,5.3,5.2,8,10.5,8
		c3.3,0,6.3-1.1,8.5-3.2l3.1,3.2c-2.7,3.3-7.1,5.4-12.3,5.4c-8.3,0-15.9-5.7-15.9-16c0-10.4,7.6-16,15.4-16
		C196.7,60.2,205.2,65.7,203.7,78.6z M179.5,73.8h18.4c-0.4-5.3-4.6-8-9-8C184.6,65.7,180.5,68.3,179.5,73.8z M208.9,76.1
		c0-10.4,8-16,16.1-16c5.4,0,10.4,2.5,13.2,7.6l-4.9,3c-1.8-2.8-4.8-4.6-8.3-4.6c-5,0-9.7,3.7-9.7,10c0,6.3,4.7,10,9.7,10
		c3.5,0,6.5-1.8,8.3-4.6l4.9,3c-2.8,5-7.8,7.6-13.2,7.6C217,92.1,208.9,86.5,208.9,76.1z M272.8,73.4v18.1h-6.6v-17
		c0-5.4-3-8.4-7.5-8.4c-4.4,0-7.6,3-7.6,8.4v17h-6.5v-42h6.5v15.9c1.7-2.8,4.9-5.2,9.9-5.2C267.4,60.2,272.8,64.1,272.8,73.4z
		 M309,73.4v18.1h-6.6v-17c0-5.4-3-8.4-7.5-8.4c-4.4,0-7.6,3-7.6,8.4v17h-6.5V60.8h6.5v4.6c1.7-2.8,4.9-5.2,9.9-5.2
		C303.5,60.2,309,64.1,309,73.4z M315.5,76.1c0-10.4,8.1-16,16.1-16s16.1,5.6,16.1,16c0,10.4-8.1,16-16.1,16S315.5,86.5,315.5,76.1z
		 M341.1,76.1c0-6.3-4.6-10-9.6-10c-5,0-9.6,3.7-9.6,10c0,6.3,4.6,10,9.6,10C336.6,86.1,341.1,82.5,341.1,76.1z M355.7,49.5h5.7
		L356.3,64h-5.7L355.7,49.5z M370.7,49.5h5.1l-4.4,42h-5.1L370.7,49.5z M409,73.4l-1.9,18.1h-5l1.8-17.4c0.7-6.2-2.7-9.4-7.7-9.4
		c-5,0-8.9,3.2-9.6,9.4l-1.8,17.4h-5l3.2-30.8h5l-0.5,4.9c1.9-2.9,5.4-5.5,10.6-5.5C404.7,60.2,410,64.2,409,73.4z M425.6,58
		l-0.3,2.8h8.5l-0.4,4.1h-8.5l-2.8,26.7h-5l2.8-26.7h-3.5l0.4-4.1h3.5l0.4-3.2c0.8-7.5,5.9-9.2,9.6-9.2c1.8,0,3.5,0.4,4.7,1.2
		l-0.4,4c-1.1-0.6-2.4-0.8-3.6-0.8C428.1,52.7,426,54.1,425.6,58z M436.4,77.8c0-9.9,7.9-17.6,17.3-17.6c6.6,0,14.4,4.8,14.4,14.4
		c0,9.9-7.9,17.6-17.4,17.6C444.1,92.1,436.4,87.3,436.4,77.8z M463.3,74.7c0-6.8-5.2-10-9.9-10c-5.4,0-12.1,4.4-12.1,13
		c0,6.7,5.2,9.9,9.9,9.9C456.6,87.6,463.3,83.2,463.3,74.7z"/>
</g>
</svg>
